<?xml version="1.0" encoding="UTF-8"?>
<svg width="16px" height="16px" viewBox="0 0 16 16" version="1.1" xmlns="http://www.w3.org/2000/svg" xmlns:xlink="http://www.w3.org/1999/xlink">
    <!-- Generator: Sketch 46.2 (44496) - http://www.bohemiancoding.com/sketch -->
    <title>facebook-small-selected</title>
    <desc>Created with Sketch.</desc>
    <defs></defs>
    <g id="Page-1" stroke="none" stroke-width="1" fill="none" fill-rule="evenodd">
        <path d="M11.0835918,15.9970806 L11.0835918,9.82646172 L13.1536535,9.82646172 C13.2596953,9.00920355 13.3631428,8.21223555 13.4703891,7.38580511 C13.3575373,7.37450191 13.2621506,7.35708387 13.1666713,7.35671327 C12.5489976,7.3541191 11.9312775,7.34879177 11.3137891,7.3590295 C11.1199119,7.3622259 11.0605211,7.29871491 11.068165,7.10734808 C11.0899848,6.56071808 11.065617,6.01070639 11.1159278,5.46727279 C11.1597065,4.99466947 11.4556877,4.74794477 11.9386898,4.72288318 C12.3930156,4.69930397 12.8491945,4.70148122 13.3043542,4.70741077 C13.4952202,4.7099123 13.5608651,4.6443167 13.5579002,4.45350577 C13.5489128,3.86689766 13.5552132,3.28010426 13.5538234,2.69335718 C13.5535918,2.58662535 13.5667949,2.47702141 13.4023815,2.46335566 C12.4957219,2.38789292 11.5841053,2.26934833 10.6873133,2.49782114 C9.49542022,2.80143241 8.78036778,3.59770555 8.60478963,4.79955035 C8.49860886,5.5266609 8.5373843,6.2753587 8.5174175,7.01455996 C8.50829114,7.3544897 8.51528647,7.35499927 8.17228367,7.35527721 C7.67047298,7.35569413 7.1685233,7.36157736 6.66685159,7.35268304 C6.47663421,7.34930134 6.41177685,7.41457267 6.41455645,7.60700496 C6.42414607,8.27078981 6.42270995,8.93485261 6.41529768,9.59873011 C6.41344461,9.76813908 6.464126,9.82757351 6.63924089,9.82442344 C7.18723929,9.81450998 7.73556197,9.8260448 8.2836067,9.81766005 C8.44579644,9.81515853 8.51940954,9.84851222 8.51889995,10.0309847 C8.51366503,11.9532693 8.51473055,13.8756003 8.51737117,15.7979312 C8.51755648,15.9426029 8.47549184,16.0002769 8.31895396,15.999999 C5.8329712,15.9956908 3.34694211,15.9997211 0.860959348,15.9944401 C0.384072416,15.9934209 0.0169334088,15.6143469 0.0035913225,15.1371111 C-0.00354298755,14.8825576 0.00215519515,14.6276334 0.00215519515,14.3728483 C0.00215519515,9.91832336 0.00210886846,5.46379845 0.00220152184,1.00927354 C0.00220152184,0.342245968 0.344833711,9.26491521e-05 1.01272558,4.63245761e-05 C5.67592373,-6.5831182e-16 10.3391219,-4.63245761e-05 15.00232,9.26491521e-05 C15.655341,9.26491521e-05 15.9998726,0.345118092 15.9999189,0.999035807 C16.0000116,5.66971119 16.0000579,10.3404329 15.9998726,15.0111083 C15.9998263,15.6464498 15.6487163,15.9968489 15.0124192,15.9969879 C13.7925912,15.9973122 12.5727632,15.9970806 11.3528888,15.9970806 L11.0835918,15.9970806 Z" id="facebook-small-selected" fill="#4A6FA9"></path>
    </g>
</svg>