<?xml version="1.0" encoding="UTF-8"?>
<svg width="16px" height="16px" viewBox="0 0 16 16" version="1.1" xmlns="http://www.w3.org/2000/svg" xmlns:xlink="http://www.w3.org/1999/xlink">
    <!-- Generator: Sketch 46.2 (44496) - http://www.bohemiancoding.com/sketch -->
    <title>Fill 4</title>
    <desc>Created with Sketch.</desc>
    <defs>
        <linearGradient x1="50%" y1="0%" x2="50%" y2="97.8156888%" id="linearGradient-1">
            <stop stop-color="#9D40A6" offset="0%"></stop>
            <stop stop-color="#C73E73" offset="39.2139668%"></stop>
            <stop stop-color="#E76A4E" offset="73.9058514%"></stop>
            <stop stop-color="#FDA44C" offset="100%"></stop>
        </linearGradient>
    </defs>
    <g id="Page-1" stroke="none" stroke-width="1" fill="none" fill-rule="evenodd">
        <path d="M14.2706756,12.7572336 C14.2706756,13.5928525 13.590482,14.2730461 12.7548632,14.2730461 L3.05513723,14.2730461 C2.21958247,14.2730461 1.53932481,13.5928525 1.53932481,12.7572336 L1.53932481,6.28447116 L3.90010976,6.28447116 C3.84129675,6.4280441 3.78953105,6.57872841 3.74711905,6.72934865 C3.63884674,7.10356084 3.58240419,7.49897903 3.58240419,7.90618544 C3.58240419,10.2905468 5.52182403,12.2300308 7.90381498,12.2300308 C10.2881764,12.2300308 12.2276603,10.2905468 12.2276603,7.90618544 C12.2276603,7.49897903 12.1687832,7.10356084 12.0628814,6.72934865 C12.018163,6.57872841 11.9687037,6.4280441 11.9098907,6.28447116 L14.2706756,6.28447116 L14.2706756,12.7572336 Z M5.48184656,6.54810464 C5.53361226,6.45866786 5.58774842,6.36923109 5.64893189,6.28447116 C6.15499285,5.58307157 6.97645299,5.12409946 7.90381498,5.12409946 C8.83354743,5.12409946 9.65500757,5.58307157 10.1610685,6.28447116 C10.222252,6.36923109 10.2763882,6.45866786 10.3281539,6.5504751 C10.5541163,6.95057014 10.6882714,7.41428317 10.6882714,7.90618544 C10.6882714,9.4408334 9.43846294,10.6883355 7.90381498,10.6883355 C6.36923109,10.6883355 5.121729,9.4408334 5.121729,7.90618544 C5.12147273,7.41428317 5.2535137,6.95057014 5.48184656,6.54810464 Z M11.6436945,1.82884114 L13.6302032,1.82416429 L13.6349441,1.82416429 C13.8256059,1.82179383 13.9809671,1.97715499 13.9809671,2.16544631 L13.9809671,4.15906639 C13.9809671,4.34972817 13.8279764,4.50271887 13.6373146,4.50271887 L11.6531123,4.50976618 C11.4624505,4.50976618 11.3094598,4.35677548 11.3094598,4.16848415 L11.3024125,2.17486408 C11.300042,1.9842023 11.4530327,1.8312116 11.6436945,1.82884114 Z M13.3244781,0 L2.48552234,0 C1.11334692,0 0,1.11334692 0,2.4878928 L0,13.3268485 C0,14.699088 1.11334692,15.8123709 2.48552234,15.8123709 L13.3244781,15.8123709 C14.6967176,15.8123709 15.8100004,14.699088 15.8100004,13.3268485 L15.8100004,2.4878928 C15.8100004,1.11334692 14.6967176,0 13.3244781,0 L13.3244781,0 Z" id="Fill-4" fill="url(#linearGradient-1)"></path>
    </g>
</svg>