<?xml version="1.0" encoding="UTF-8"?>
<svg width="17px" height="14px" viewBox="0 0 17 14" version="1.1" xmlns="http://www.w3.org/2000/svg" xmlns:xlink="http://www.w3.org/1999/xlink">
    <!-- Generator: Sketch 46.2 (44496) - http://www.bohemiancoding.com/sketch -->
    <title>twitter-small-selected</title>
    <desc>Created with Sketch.</desc>
    <defs></defs>
    <g id="Page-1" stroke="none" stroke-width="1" fill="none" fill-rule="evenodd">
        <path d="M3.65205097,3.26534918 C6.33891704,4.5404561 8.60962865,4.46689224 8.60962865,4.46689224 C8.60962865,4.46689224 7.74878791,1.64694404 10.4095681,0.396358611 C13.070348,-0.854227021 14.901347,1.25421987 14.901347,1.25421987 C14.901347,1.25421987 15.3653984,1.13447457 15.7111623,1.01472928 C16.0569261,0.894983988 16.5573737,0.681153099 16.5573737,0.681153099 L15.7374655,2.05685467 L17,1.93105358 C17,1.93105358 16.8443892,2.14492706 16.3391019,2.58054604 C15.8338146,3.01616501 15.6255609,3.24121104 15.6255609,3.24121104 C15.6255609,3.24121104 15.8060631,6.63557931 13.9038798,9.24892633 C12.0016961,11.8622732 9.54396373,13.4307361 5.97371195,13.7608431 C2.40346017,14.0909501 0.0782582351,12.7309491 0.0782582351,12.7309491 C0.0782582351,12.7309491 1.63970577,12.6471819 2.63469391,12.2895659 C3.62968212,11.93195 5.0606992,10.9899377 5.0606992,10.9899377 C5.0606992,10.9899377 3.02598507,10.4014268 2.2955749,9.73935207 C1.5651647,9.07727732 1.38256215,8.68493673 1.38256215,8.68493673 L3.39119019,8.66041545 C3.39119019,8.66041545 1.27821784,7.60600011 0.678238038,6.77227635 C0.0782581748,5.93855263 0,5.12935013 0,5.12935013 L1.54425142,5.7155405 C1.54425142,5.7155405 0.260860875,4.07493478 0.0782582351,2.79982787 C-0.104344313,1.52472095 0.31303294,0.838124921 0.31303294,0.838124921 C0.31303294,0.838124921 0.965184907,1.99024225 3.65205097,3.26534918 Z" id="twitter-small-selected" fill="#3BA9EF"></path>
    </g>
</svg>