<?xml version="1.0" encoding="UTF-8"?>
<svg width="185px" height="32px" viewBox="0 0 185 32" version="1.1" xmlns="http://www.w3.org/2000/svg" xmlns:xlink="http://www.w3.org/1999/xlink">
    <!-- Generator: Sketch 46.2 (44496) - http://www.bohemiancoding.com/sketch -->
    <title>Group 38</title>
    <desc>Created with Sketch.</desc>
    <defs>
        <path d="M17.5791855,23.2253865 L17.5791855,31.4338953 C25.5763165,30.6049205 31.8099548,23.9038424 31.8099548,15.7600837 C31.8099548,7.05602983 24.6890538,0 15.9049774,0 C7.12090093,0 0,7.05602983 0,15.7600837 C0,23.9038424 6.23363824,30.6049205 14.2307692,31.4338953 L14.2307692,23.2253865 L6.69683258,23.2253865 L6.69683258,9.124259 L14.2307692,9.124259 L14.2307692,7.46530282 L17.5791855,7.46530282 L17.5791855,9.124259 L25.1131222,9.124259 L25.1131222,23.2253865 L17.5791855,23.2253865 Z" id="path-1"></path>
    </defs>
    <g id="Page-1" stroke="none" stroke-width="1" fill="none" fill-rule="evenodd">
        <g id="Group-38">
            <path d="M45.9369231,15.902754 L48.5922172,15.902754 C48.9839839,15.902754 49.361235,15.873999 49.7239819,15.8164882 C50.0867288,15.7589775 50.4059413,15.647552 50.681629,15.4822086 C50.9573166,15.3168651 51.1785889,15.0832311 51.3454525,14.7812996 C51.5123161,14.479368 51.5957466,14.0839874 51.5957466,13.5951459 C51.5957466,13.1063044 51.5123161,12.7109238 51.3454525,12.4089922 C51.1785889,12.1070607 50.9573166,11.8734267 50.681629,11.7080833 C50.4059413,11.5427398 50.0867288,11.4313143 49.7239819,11.3738036 C49.361235,11.3162928 48.9839839,11.2875379 48.5922172,11.2875379 L45.9369231,11.2875379 L45.9369231,15.902754 Z M42.5198643,8.65643336 L49.5280995,8.65643336 C50.5002613,8.65643336 51.3273118,8.79661375 52.009276,9.07697875 C52.6912402,9.35734374 53.2462347,9.72756376 53.674276,10.1876499 C54.1023174,10.6477361 54.414275,11.1725139 54.6101584,11.7619993 C54.8060417,12.3514847 54.9039819,12.9625275 54.9039819,13.5951459 C54.9039819,14.2133867 54.8060417,14.8208351 54.6101584,15.4175093 C54.414275,16.0141835 54.1023174,16.5425558 53.674276,17.0026419 C53.2462347,17.4627281 52.6912402,17.8329481 52.009276,18.1133131 C51.3273118,18.3936781 50.5002613,18.5338585 49.5280995,18.5338585 L45.9369231,18.5338585 L45.9369231,24.0548646 L42.5198643,24.0548646 L42.5198643,8.65643336 Z M56.7975113,8.65643336 L56.7975113,24.0548646 L59.8880995,24.0548646 L59.8880995,8.65643336 L56.7975113,8.65643336 Z M62.1951584,16.3340826 C62.238688,15.615198 62.4200587,15.0185327 62.739276,14.5440688 C63.0584933,14.069605 63.4647637,13.6886019 63.9580995,13.401048 C64.4514353,13.1134942 65.0064298,12.9086152 65.6230995,12.7864048 C66.2397693,12.6641944 66.8600572,12.6030901 67.4839819,12.6030901 C68.0498671,12.6030901 68.6229986,12.6426282 69.2033937,12.7217055 C69.7837887,12.8007828 70.3133913,12.9553407 70.7922172,13.1853837 C71.2710431,13.4154268 71.6628039,13.7353257 71.9675113,14.1450899 C72.2722187,14.5548541 72.4245701,15.0976038 72.4245701,15.7733554 L72.4245701,21.5747251 C72.4245701,22.0779444 72.4535895,22.5595898 72.511629,23.019676 C72.5696685,23.4797621 72.6712361,23.8248216 72.8163348,24.0548646 L69.6822172,24.0548646 C69.6241777,23.8823323 69.5770213,23.7062082 69.5407466,23.5264871 C69.5044719,23.3467659 69.47908,23.1634531 69.4645701,22.9765431 C68.9712343,23.4797623 68.390848,23.8320105 67.7233937,24.0332982 C67.0559393,24.2345859 66.3739854,24.3352282 65.6775113,24.3352282 C65.1406459,24.3352282 64.6400627,24.2705296 64.1757466,24.1411304 C63.7114306,24.0117311 63.3051601,23.8104465 62.9569231,23.5372703 C62.608686,23.2640942 62.3366299,22.9190347 62.1407466,22.5020816 C61.9448633,22.0851286 61.8469231,21.5891056 61.8469231,21.013998 C61.8469231,20.3813795 61.9593729,19.860196 62.184276,19.4504318 C62.4091791,19.0406675 62.6993723,18.7135799 63.0548643,18.4691592 C63.4103562,18.2247384 63.8166267,18.0414256 64.2736878,17.9192152 C64.7307489,17.7970048 65.1914306,17.6999568 65.6557466,17.6280684 C66.1200627,17.5561799 66.5771169,17.49867 67.0269231,17.4555369 C67.4767292,17.4124039 67.8757449,17.3477052 68.2239819,17.2614391 C68.5722189,17.1751729 68.8479025,17.04937 69.0510407,16.8840265 C69.254179,16.7186831 69.3484918,16.4778603 69.3339819,16.1615511 C69.3339819,15.8308642 69.2795707,15.5684753 69.1707466,15.3743764 C69.0619225,15.1802776 68.9168259,15.0293141 68.7354525,14.9214814 C68.554079,14.8136487 68.343689,14.7417613 68.104276,14.7058171 C67.8648631,14.6698728 67.6073166,14.651901 67.331629,14.651901 C66.7222141,14.651901 66.2433954,14.7812983 65.8951584,15.0400967 C65.5469213,15.2988952 65.3437861,15.7302195 65.2857466,16.3340826 L62.1951584,16.3340826 Z M69.3339819,18.5985578 C69.203393,18.7135793 69.0401594,18.8034385 68.844276,18.8681381 C68.6483927,18.9328377 68.4380026,18.9867533 68.2130995,19.0298864 C67.9881965,19.0730194 67.7524145,19.1089631 67.5057466,19.1377185 C67.2590787,19.1664739 67.0124145,19.2024176 66.7657466,19.2455507 C66.5335886,19.2886837 66.3050615,19.3461936 66.0801584,19.4180821 C65.8552553,19.4899706 65.6593749,19.5870185 65.4925113,19.7092289 C65.3256477,19.8314393 65.1914334,19.9859972 65.0898643,20.1729072 C64.9882951,20.3598172 64.9375113,20.5970455 64.9375113,20.8845994 C64.9375113,21.1577755 64.9882951,21.3878151 65.0898643,21.5747251 C65.1914334,21.7616351 65.3292751,21.9090043 65.5033937,22.016837 C65.6775122,22.1246697 65.8806474,22.2001514 66.1128054,22.2432845 C66.3449635,22.2864176 66.5843728,22.3079838 66.8310407,22.3079838 C67.4404555,22.3079838 67.9120194,22.2073414 68.2457466,22.0060537 C68.5794738,21.8047661 68.826138,21.5639433 68.9857466,21.2835783 C69.1453552,21.0032133 69.2432954,20.7192582 69.2795701,20.4317043 C69.3158448,20.1441505 69.3339819,19.9141109 69.3339819,19.7415786 L69.3339819,18.5985578 Z M82.4798643,16.8301105 L85.5051584,16.8301105 C85.4616287,16.1112259 85.2875128,15.4894 84.9828054,14.9646142 C84.678098,14.4398285 84.2827098,14.0013154 83.796629,13.649062 C83.3105481,13.2968085 82.7591811,13.0344196 82.1425113,12.8618873 C81.5258416,12.689355 80.8837892,12.6030901 80.2163348,12.6030901 C79.3022126,12.6030901 78.4896717,12.7540536 77.7786878,13.0559851 C77.0677038,13.3579167 76.465553,13.7784579 75.9722172,14.3176213 C75.4788814,14.8567848 75.1052577,15.4965825 74.8513348,16.2370336 C74.597412,16.9774848 74.4704525,17.7790291 74.4704525,18.6416906 C74.4704525,19.4755968 74.6082942,20.2411974 74.8839819,20.9385154 C75.1596696,21.6358335 75.5441755,22.2360932 76.0375113,22.7393124 C76.5308471,23.2425316 77.1293705,23.6343178 77.8330995,23.9146828 C78.5368286,24.1950478 79.3094679,24.3352282 80.1510407,24.3352282 C81.645558,24.3352282 82.8716242,23.9470364 83.829276,23.170641 C84.7869279,22.3942456 85.3673142,21.2656137 85.5704525,19.7847114 L82.5886878,19.7847114 C82.4871186,20.4748406 82.236827,21.0247791 81.8378054,21.4345433 C81.4387838,21.8443076 80.8692797,22.0491866 80.129276,22.0491866 C79.6504501,22.0491866 79.2441796,21.9413555 78.9104525,21.7256902 C78.5767253,21.5100248 78.3119241,21.2332583 78.1160407,20.8953826 C77.9201574,20.5575068 77.7786882,20.1800981 77.691629,19.763145 C77.6045697,19.3461919 77.5610407,18.9364338 77.5610407,18.5338585 C77.5610407,18.1169054 77.6045697,17.6963642 77.691629,17.2722223 C77.7786882,16.8480804 77.9274122,16.4598885 78.1378054,16.107635 C78.3481986,15.7553816 78.6202547,15.4678321 78.9539819,15.2449778 C79.2877091,15.0221236 79.7012343,14.9106982 80.1945701,14.9106982 C81.5149689,14.9106982 82.276726,15.5504959 82.4798643,16.8301105 Z M94.8857466,17.2830055 C94.7406478,16.5066101 94.4831014,15.9171336 94.1130995,15.5145582 C93.7430977,15.1119828 93.1808484,14.9106982 92.4263348,14.9106982 C91.932999,14.9106982 91.5231012,14.9933686 91.196629,15.1587121 C90.8701567,15.3240556 90.6089829,15.5289346 90.4130995,15.7733554 C90.2172162,16.0177761 90.0793745,16.2765707 89.9995701,16.5497469 C89.9197658,16.822923 89.8726094,17.0673401 89.8580995,17.2830055 L94.8857466,17.2830055 Z M89.8580995,19.2239842 C89.9016292,20.216045 90.1555482,20.9349188 90.6198643,21.3806273 C91.0841803,21.8263357 91.7516246,22.0491866 92.6222172,22.0491866 C93.2461419,22.0491866 93.7829993,21.8946287 94.2328054,21.5855084 C94.6826116,21.276388 94.9582951,20.9493004 95.0598643,20.6042358 L97.7804525,20.6042358 C97.3451562,21.9413611 96.6777119,22.8974633 95.7780995,23.472571 C94.8784872,24.0476787 93.7902628,24.3352282 92.5133937,24.3352282 C91.6282912,24.3352282 90.83026,24.1950478 90.119276,23.9146828 C89.4082921,23.6343178 88.8061412,23.2353429 88.3128054,22.717746 C87.8194696,22.200149 87.4385911,21.5819175 87.1701584,20.8630329 C86.9017257,20.1441483 86.7675113,19.3533871 86.7675113,18.4907256 C86.7675113,17.6568195 86.9053531,16.8804357 87.1810407,16.1615511 C87.4567284,15.4426665 87.8484892,14.8208407 88.3563348,14.2960549 C88.8641805,13.7712691 89.4699588,13.3579167 90.1736878,13.0559851 C90.8774168,12.7540536 91.657311,12.6030901 92.5133937,12.6030901 C93.4710455,12.6030901 94.3053509,12.7864029 95.0163348,13.1530341 C95.7273188,13.5196652 96.3113326,14.0120938 96.7683937,14.6303346 C97.2254548,15.2485753 97.5555495,15.9530717 97.7586878,16.7438447 C97.9618261,17.5346178 98.0343743,18.3613227 97.9763348,19.2239842 L89.8580995,19.2239842 Z M99.891629,12.9050201 L99.891629,24.0548646 L102.982217,24.0548646 L102.982217,17.5849355 C102.982217,17.0385832 103.06202,16.5964758 103.221629,16.2586001 C103.381238,15.9207243 103.573491,15.6619297 103.798394,15.4822086 C104.023297,15.3024874 104.255451,15.1802789 104.494864,15.1155792 C104.734277,15.0508796 104.92653,15.0185303 105.071629,15.0185303 C105.564965,15.0185303 105.938588,15.1012008 106.192511,15.2665443 C106.446434,15.4318877 106.627805,15.6511442 106.736629,15.9243204 C106.845453,16.1974965 106.907119,16.4958292 106.921629,16.8193272 C106.936139,17.1428253 106.943394,17.4699129 106.943394,17.8005998 L106.943394,24.0548646 L110.033982,24.0548646 L110.033982,17.8437327 C110.033982,17.4986681 110.059374,17.157203 110.110158,16.8193272 C110.160943,16.4814515 110.262511,16.1795245 110.414864,15.9135372 C110.567218,15.6475499 110.777608,15.4318877 111.046041,15.2665443 C111.314473,15.1012008 111.666333,15.0185303 112.101629,15.0185303 C112.536925,15.0185303 112.88153,15.0904177 113.135452,15.2341946 C113.389375,15.3779715 113.581628,15.5720675 113.712217,15.8164882 C113.842806,16.060909 113.922609,16.3484585 113.951629,16.6791454 C113.980649,17.0098324 113.995158,17.3620805 113.995158,17.7359005 L113.995158,24.0548646 L117.085747,24.0548646 L117.085747,16.5928797 C117.085747,15.8739951 116.984179,15.259358 116.781041,14.7489499 C116.577902,14.2385419 116.294964,13.8251894 115.932217,13.5088802 C115.56947,13.192571 115.134181,12.9625313 114.626335,12.8187544 C114.118489,12.6749775 113.567122,12.6030901 112.972217,12.6030901 C112.188684,12.6030901 111.510357,12.7899973 110.937217,13.1638173 C110.364077,13.5376373 109.91065,13.9689616 109.576923,14.4578031 C109.272216,13.7676739 108.826044,13.2860284 108.238394,13.0128523 C107.650744,12.7396761 107.001436,12.6030901 106.290452,12.6030901 C105.550449,12.6030901 104.893887,12.7612424 104.320747,13.0775516 C103.747606,13.3938608 103.257906,13.8395626 102.851629,14.4146703 L102.8081,14.4146703 L102.8081,12.9050201 L99.891629,12.9050201 Z M125.073394,25.4351162 L129.77457,12.9050201 L126.575158,12.9050201 L124.115747,20.5395365 L124.072217,20.5395365 L121.525747,12.9050201 L118.239276,12.9050201 L122.178688,23.3647389 C122.265747,23.5804042 122.309276,23.8104439 122.309276,24.0548646 C122.309276,24.3855516 122.211336,24.6874786 122.015452,24.9606547 C121.819569,25.2338309 121.518494,25.3919831 121.112217,25.4351162 C120.80751,25.4494939 120.502807,25.4423051 120.1981,25.4135497 C119.893392,25.3847944 119.595944,25.3560394 119.305747,25.327284 L119.305747,27.8505564 C119.624964,27.8793118 119.940549,27.9044723 120.252511,27.9260389 C120.564474,27.9476054 120.880059,27.9583885 121.199276,27.9583885 C122.258497,27.9583885 123.085548,27.7642926 123.680452,27.3760949 C124.275357,26.9878972 124.739667,26.3409108 125.073394,25.4351162 Z M133.213394,20.4317043 L130.275158,20.4317043 C130.304178,21.1793443 130.474667,21.8011702 130.786629,22.2972006 C131.098591,22.7932309 131.497607,23.1922059 131.983688,23.4941374 C132.469769,23.796069 133.024763,24.0117311 133.648688,24.1411304 C134.272612,24.2705296 134.911037,24.3352282 135.563982,24.3352282 C136.202416,24.3352282 136.829959,24.274124 137.446629,24.1519136 C138.063299,24.0297032 138.611038,23.8176354 139.089864,23.5157039 C139.56869,23.2137723 139.956824,22.8147974 140.254276,22.318767 C140.551728,21.8227366 140.700452,21.2080995 140.700452,20.4748372 C140.700452,19.9572403 140.598885,19.5223216 140.395747,19.1700682 C140.192608,18.8178147 139.92418,18.5230764 139.590452,18.2858445 C139.256725,18.0486126 138.875847,17.858111 138.447805,17.7143341 C138.019764,17.5705572 137.580847,17.4483486 137.131041,17.3477048 C136.695744,17.2470609 136.267709,17.1536073 135.846923,17.0673412 C135.426137,16.981075 135.052513,16.8840271 134.726041,16.7761944 C134.399569,16.6683617 134.134767,16.5281813 133.931629,16.355649 C133.728491,16.1831167 133.626923,15.9602658 133.626923,15.6870897 C133.626923,15.4570466 133.684962,15.2737338 133.801041,15.1371457 C133.91712,15.0005576 134.058589,14.8963209 134.225452,14.8244324 C134.392316,14.752544 134.577314,14.7058172 134.780452,14.6842506 C134.983591,14.6626841 135.172216,14.651901 135.346335,14.651901 C135.89771,14.651901 136.376529,14.7561377 136.782805,14.9646142 C137.189082,15.1730908 137.413982,15.5720657 137.457511,16.1615511 L140.395747,16.1615511 C140.337707,15.4714219 140.159964,14.8999172 139.862511,14.4470199 C139.565059,13.9941226 139.191435,13.6310913 138.741629,13.3579152 C138.291823,13.084739 137.780357,12.8906431 137.207217,12.7756216 C136.634077,12.6606 136.042808,12.6030901 135.433394,12.6030901 C134.823979,12.6030901 134.229083,12.6570056 133.648688,12.7648383 C133.068293,12.872671 132.545945,13.0595782 132.081629,13.3255655 C131.617313,13.5915528 131.243689,13.9545841 130.960747,14.4146703 C130.677804,14.8747564 130.536335,15.4642329 130.536335,16.1831176 C130.536335,16.6719591 130.637902,17.0853115 130.841041,17.4231873 C131.044179,17.7610631 131.312608,18.0414239 131.646335,18.2642781 C131.980062,18.4871323 132.360941,18.6668508 132.788982,18.8034388 C133.217023,18.9400269 133.65594,19.0586411 134.105747,19.1592849 C135.208497,19.389328 136.068195,19.6193676 136.684864,19.8494107 C137.301534,20.0794538 137.609864,20.4245132 137.609864,20.8845994 C137.609864,21.1577755 137.544571,21.3842208 137.413982,21.5639419 C137.283393,21.7436631 137.120159,21.8874378 136.924276,21.9952705 C136.728393,22.1031032 136.510748,22.1821793 136.271335,22.2325013 C136.031922,22.2828232 135.803395,22.3079838 135.585747,22.3079838 C135.281039,22.3079838 134.987219,22.2720401 134.704276,22.2001516 C134.421333,22.1282632 134.171042,22.0168377 133.953394,21.865872 C133.735746,21.7149062 133.558002,21.5208103 133.420158,21.2835783 C133.282315,21.0463464 133.213394,20.7623913 133.213394,20.4317043 Z M145.68457,11.1797057 L145.68457,8.65643336 L142.593982,8.65643336 L142.593982,11.1797057 L145.68457,11.1797057 Z M142.593982,12.9050201 L142.593982,24.0548646 L145.68457,24.0548646 L145.68457,12.9050201 L142.593982,12.9050201 Z M153.367511,21.4237601 C153.802808,21.4237601 154.187314,21.3374953 154.521041,21.164963 C154.854768,20.9924307 155.130451,20.762391 155.3481,20.4748372 C155.565748,20.1872834 155.728981,19.8601958 155.837805,19.4935646 C155.94663,19.1269335 156.001041,18.742336 156.001041,18.3397606 C156.001041,17.8796744 155.957512,17.4447558 155.870452,17.0349916 C155.783393,16.6252273 155.638297,16.262196 155.435158,15.9458868 C155.23202,15.6295776 154.963591,15.3779718 154.629864,15.1910618 C154.296137,15.0041518 153.875357,14.9106982 153.367511,14.9106982 C152.932215,14.9106982 152.558591,14.996963 152.246629,15.1694953 C151.934667,15.3420276 151.673493,15.5756616 151.4631,15.8704043 C151.252706,16.165147 151.100355,16.5030177 151.006041,16.8840265 C150.911727,17.2650354 150.86457,17.6640104 150.86457,18.0809634 C150.86457,18.4835388 150.904472,18.8825138 150.984276,19.2779003 C151.06408,19.6732868 151.201922,20.0291294 151.397805,20.3454386 C151.593689,20.6617478 151.851235,20.9205424 152.170452,21.1218301 C152.48967,21.3231178 152.888685,21.4237601 153.367511,21.4237601 Z M158.939276,23.3431724 C158.939276,23.7888809 158.87761,24.2992813 158.754276,24.874389 C158.630942,25.4494967 158.366141,25.9850577 157.959864,26.481088 C157.553588,26.9771184 156.965947,27.3976596 156.196923,27.7427242 C155.4279,28.0877888 154.397714,28.2603186 153.106335,28.2603186 C152.55496,28.2603186 151.99271,28.1920255 151.41957,28.0554375 C150.84643,27.9188494 150.324082,27.7067816 149.852511,27.4192278 C149.38094,27.1316739 148.98918,26.7614539 148.677217,26.3085566 C148.365255,25.8556593 148.187512,25.3129096 148.143982,24.6802911 L151.212805,24.6802911 C151.357904,25.2553988 151.640843,25.6543738 152.061629,25.877228 C152.482415,26.1000822 152.968489,26.2115077 153.519864,26.2115077 C154.390457,26.2115077 155.025254,25.9527131 155.424276,25.4351162 C155.823298,24.9175193 156.015551,24.2633441 156.001041,23.472571 L156.001041,22.0060537 L155.957511,22.0060537 C155.623784,22.5955391 155.148593,23.0304578 154.531923,23.3108228 C153.915253,23.5911878 153.265946,23.7313682 152.583982,23.7313682 C151.742409,23.7313682 151.016926,23.583999 150.407511,23.2892564 C149.798097,22.9945137 149.297513,22.5919443 148.905747,22.0815363 C148.51398,21.5711282 148.227414,20.9744629 148.046041,20.2915225 C147.864667,19.6085822 147.773982,18.886114 147.773982,18.1240963 C147.773982,17.4052117 147.879177,16.7114984 148.08957,16.0429358 C148.299963,15.3743731 148.608294,14.7848965 149.01457,14.2744885 C149.420847,13.7640804 149.925057,13.3579167 150.527217,13.0559851 C151.129377,12.7540536 151.822213,12.6030901 152.605747,12.6030901 C153.34575,12.6030901 153.995058,12.7396761 154.553688,13.0128523 C155.112318,13.2860284 155.580255,13.7461077 155.957511,14.3931038 L156.001041,14.3931038 L156.001041,12.9050201 L158.939276,12.9050201 L158.939276,23.3431724 Z M161.420452,12.9050201 L161.420452,24.0548646 L164.511041,24.0548646 L164.511041,18.210362 C164.511041,17.0745243 164.699666,16.2586025 165.076923,15.7625722 C165.45418,15.2665418 166.063586,15.0185303 166.905158,15.0185303 C167.645162,15.0185303 168.160255,15.2449756 168.450452,15.6978729 C168.74065,16.1507702 168.885747,16.8372947 168.885747,17.757467 L168.885747,24.0548646 L171.976335,24.0548646 L171.976335,17.1967398 C171.976335,16.5066106 171.914669,15.877596 171.791335,15.3096771 C171.668001,14.7417583 171.453983,14.2601128 171.149276,13.8647263 C170.844569,13.4693398 170.427416,13.160224 169.897805,12.9373698 C169.368195,12.7145156 168.689868,12.6030901 167.862805,12.6030901 C167.209861,12.6030901 166.571436,12.7504592 165.947511,13.0452019 C165.323587,13.3399446 164.815749,13.810807 164.423982,14.4578031 L164.358688,14.4578031 L164.358688,12.9050201 L161.420452,12.9050201 Z M176.721041,20.4317043 L173.782805,20.4317043 C173.811825,21.1793443 173.982314,21.8011702 174.294276,22.2972006 C174.606238,22.7932309 175.005254,23.1922059 175.491335,23.4941374 C175.977416,23.796069 176.53241,24.0117311 177.156335,24.1411304 C177.78026,24.2705296 178.418685,24.3352282 179.071629,24.3352282 C179.710064,24.3352282 180.337606,24.274124 180.954276,24.1519136 C181.570946,24.0297032 182.118685,23.8176354 182.597511,23.5157039 C183.076337,23.2137723 183.464471,22.8147974 183.761923,22.318767 C184.059376,21.8227366 184.2081,21.2080995 184.2081,20.4748372 C184.2081,19.9572403 184.106532,19.5223216 183.903394,19.1700682 C183.700255,18.8178147 183.431827,18.5230764 183.0981,18.2858445 C182.764372,18.0486126 182.383494,17.858111 181.955452,17.7143341 C181.527411,17.5705572 181.088494,17.4483486 180.638688,17.3477048 C180.203391,17.2470609 179.775357,17.1536073 179.35457,17.0673412 C178.933784,16.981075 178.56016,16.8840271 178.233688,16.7761944 C177.907216,16.6683617 177.642414,16.5281813 177.439276,16.355649 C177.236138,16.1831167 177.13457,15.9602658 177.13457,15.6870897 C177.13457,15.4570466 177.192609,15.2737338 177.308688,15.1371457 C177.424767,15.0005576 177.566236,14.8963209 177.7331,14.8244324 C177.899963,14.752544 178.084961,14.7058172 178.2881,14.6842506 C178.491238,14.6626841 178.679863,14.651901 178.853982,14.651901 C179.405357,14.651901 179.884176,14.7561377 180.290452,14.9646142 C180.696729,15.1730908 180.921629,15.5720657 180.965158,16.1615511 L183.903394,16.1615511 C183.845354,15.4714219 183.667611,14.8999172 183.370158,14.4470199 C183.072706,13.9941226 182.699082,13.6310913 182.249276,13.3579152 C181.79947,13.084739 181.288004,12.8906431 180.714864,12.7756216 C180.141724,12.6606 179.550456,12.6030901 178.941041,12.6030901 C178.331626,12.6030901 177.73673,12.6570056 177.156335,12.7648383 C176.57594,12.872671 176.053592,13.0595782 175.589276,13.3255655 C175.12496,13.5915528 174.751336,13.9545841 174.468394,14.4146703 C174.185451,14.8747564 174.043982,15.4642329 174.043982,16.1831176 C174.043982,16.6719591 174.14555,17.0853115 174.348688,17.4231873 C174.551826,17.7610631 174.820255,18.0414239 175.153982,18.2642781 C175.487709,18.4871323 175.868588,18.6668508 176.296629,18.8034388 C176.72467,18.9400269 177.163587,19.0586411 177.613394,19.1592849 C178.716144,19.389328 179.575842,19.6193676 180.192511,19.8494107 C180.809181,20.0794538 181.117511,20.4245132 181.117511,20.8845994 C181.117511,21.1577755 181.052218,21.3842208 180.921629,21.5639419 C180.79104,21.7436631 180.627806,21.8874378 180.431923,21.9952705 C180.23604,22.1031032 180.018395,22.1821793 179.778982,22.2325013 C179.539569,22.2828232 179.311042,22.3079838 179.093394,22.3079838 C178.788686,22.3079838 178.494866,22.2720401 178.211923,22.2001516 C177.92898,22.1282632 177.678689,22.0168377 177.461041,21.865872 C177.243393,21.7149062 177.065649,21.5208103 176.927805,21.2835783 C176.789962,21.0463464 176.721041,20.7623913 176.721041,20.4317043 Z" id="Placemysigns" fill="#0079D9"></path>
            <g id="Group-6">
                <mask id="mask-2" fill="white">
                    <use xlink:href="#path-1"></use>
                </mask>
                <use id="Combined-Shape" fill="#0079D9" xlink:href="#path-1"></use>
            </g>
        </g>
    </g>
</svg>